<svg width="96" height="96" viewBox="0 0 96 96" fill="none" xmlns="http://www.w3.org/2000/svg">
<path d="M21.6743 81.5527L49.1843 91.5277L75.3293 80.9127L51.3343 73.7327L21.1943 80.4377" fill="#9499BB" fill-opacity="0.2"/>
<path d="M74.4043 81.7827H72.9793C71.6693 81.7827 70.6043 80.7177 70.6043 79.4077V51.2877C70.6043 49.9777 71.6693 48.9127 72.9793 48.9127H74.4043C75.7143 48.9127 76.7793 49.9777 76.7793 51.2877V79.4077C76.7793 80.7177 75.7143 81.7827 74.4043 81.7827Z" fill="#D0D2DF"/>
<path d="M52.0443 58.4227H50.6193C49.3093 58.4227 48.2443 57.3577 48.2443 56.0477V6.84766C48.2443 5.53766 49.3093 4.47266 50.6193 4.47266H52.0443C53.3543 4.47266 54.4193 5.53766 54.4193 6.84766V56.0477C54.4193 57.3577 53.3543 58.4227 52.0443 58.4227Z" fill="#D0D2DF"/>
<path d="M49.8993 91.5277H48.4743C47.1643 91.5277 46.0993 90.4627 46.0993 89.1527V58.3127C46.0993 57.0027 47.1643 55.9377 48.4743 55.9377H49.8993C51.2093 55.9377 52.2743 57.0027 52.2743 58.3127V89.1527C52.2743 90.4627 51.2093 91.5277 49.8993 91.5277Z" fill="#D0D2DF"/>
<path d="M50.6343 29.7077L25.3943 35.3177V14.4927L50.3393 10.5677C50.8593 10.4877 51.3293 10.8877 51.3293 11.4127V28.8677C51.3293 29.2777 51.0393 29.6327 50.6343 29.7077Z" fill="#9499BB"/>
<path d="M23.0193 81.7827H21.5943C20.2843 81.7827 19.2193 80.7177 19.2193 79.4077V10.9727C19.2193 9.66266 20.2843 8.59766 21.5943 8.59766H23.0193C24.3293 8.59766 25.3943 9.66266 25.3943 10.9727V79.4077C25.3943 80.7227 24.3293 81.7827 23.0193 81.7827Z" fill="#D0D2DF"/>
<path d="M76.7793 48.9677L74.1843 50.3427L50.0143 44.0627C49.4443 43.9127 48.8493 43.8977 48.2693 44.0177L26.4293 48.4577L23.4393 47.1977V49.7927H23.4443C23.4093 50.1977 23.5993 50.6227 24.0243 50.7927L48.0293 60.4927C48.6443 60.7427 49.3093 60.7727 49.9393 60.5827L76.1193 52.7277C76.5443 52.5977 76.7543 52.2177 76.7693 51.8227H76.7743V48.9677H76.7793Z" fill="#CFD1DD"/>
<path d="M24.1743 46.1927L48.2743 41.2927C48.8543 41.1777 49.4443 41.1927 50.0193 41.3377L76.0943 48.1127C76.9943 48.3477 77.0143 49.7377 76.1243 50.0027L49.9443 57.8577C49.3143 58.0477 48.6443 58.0177 48.0343 57.7677L24.0293 48.0677C23.1793 47.7277 23.2843 46.3727 24.1743 46.1927Z" fill="#9499BB"/>
<path d="M25.3943 36.1727H20.6093V53.4227H25.3943V36.1727Z" fill="#D0D2DF"/>
</svg>
